<svg width="30" height="35" viewBox="0 0 30 35" fill="none" xmlns="http://www.w3.org/2000/svg">
<path d="M26.6684 18.158L15.8761 28.9678C14.4612 30.2252 12.6194 30.8945 10.7274 30.8388C8.83537 30.7831 7.03612 30.0066 5.69768 28.6682C4.35924 27.3297 3.58276 25.5305 3.52707 23.6384C3.47137 21.7464 4.14067 19.9046 5.39806 18.4898L19.3687 4.51908C20.2028 3.72677 21.3093 3.285 22.4598 3.285C23.6102 3.285 24.7167 3.72677 25.5508 4.51908C26.3634 5.34264 26.8191 6.4531 26.8191 7.6101C26.8191 8.7671 26.3634 9.87756 25.5508 10.7011L13.5011 22.7334C13.3818 22.8618 13.2384 22.9655 13.0791 23.0385C12.9198 23.1115 12.7476 23.1524 12.5725 23.1589C12.3974 23.1654 12.2227 23.1373 12.0584 23.0763C11.8941 23.0153 11.7434 22.9225 11.615 22.8032C11.4866 22.684 11.3829 22.5406 11.3099 22.3813C11.2369 22.2219 11.196 22.0498 11.1895 21.8747C11.183 21.6995 11.2111 21.5248 11.2721 21.3605C11.3331 21.1963 11.4259 21.0456 11.5452 20.9172L20.5039 11.9759C20.8327 11.6471 21.0174 11.2011 21.0174 10.736C21.0174 10.271 20.8327 9.82498 20.5039 9.49614C20.175 9.1673 19.729 8.98256 19.264 8.98256C18.7989 8.98256 18.3529 9.1673 18.0241 9.49614L9.06536 18.4723C8.61709 18.9171 8.26129 19.4462 8.01849 20.0292C7.77569 20.6122 7.65068 21.2374 7.65068 21.8689C7.65068 22.5004 7.77569 23.1257 8.01849 23.7087C8.26129 24.2916 8.61709 24.8208 9.06536 25.2656C9.9811 26.1378 11.1973 26.6244 12.462 26.6244C13.7267 26.6244 14.9429 26.1378 15.8586 25.2656L27.8909 13.2158C29.279 11.7261 30.0347 9.75577 29.9988 7.71988C29.9629 5.68399 29.1381 3.74152 27.6983 2.30171C26.2585 0.86189 24.316 0.0371452 22.2801 0.00122432C20.2442 -0.0346966 18.2739 0.721011 16.7842 2.10914L2.81348 16.0798C0.929534 18.1664 -0.0766534 20.8995 0.0045601 23.7095C0.0857736 26.5196 1.24812 29.19 3.24944 31.1643C5.25075 33.1386 7.93667 34.2645 10.7476 34.3075C13.5585 34.3506 16.2776 33.3073 18.3384 31.3952L29.1482 20.6028C29.3111 20.44 29.4402 20.2467 29.5283 20.034C29.6165 19.8212 29.6618 19.5932 29.6618 19.3629C29.6618 19.1327 29.6165 18.9046 29.5283 18.6919C29.4402 18.4792 29.3111 18.2859 29.1482 18.123C28.9854 17.9602 28.7921 17.8311 28.5794 17.7429C28.3666 17.6548 28.1386 17.6095 27.9083 17.6095C27.6781 17.6095 27.45 17.6548 27.2373 17.7429C27.0246 17.8311 26.8313 17.9602 26.6684 18.123V18.158Z" fill="black"/>
</svg>
