<svg width="20" height="23" viewBox="0 0 20 23" fill="none" xmlns="http://www.w3.org/2000/svg">
<path d="M2.85714 0C2.65714 0 2.48571 0.02875 2.31429 0.08625C1.2 0.31625 0.314286 1.2075 0.0857143 2.32875C0 2.50125 0 2.67375 0 2.875V18.6875C0 21.0737 1.91429 23 4.28571 23H20V20.125H4.28571C3.48571 20.125 2.85714 19.4925 2.85714 18.6875C2.85714 17.8825 3.48571 17.25 4.28571 17.25H20V1.4375C20 0.6325 19.3714 0 18.5714 0H17.1429V8.625L14.2857 5.75L11.4286 8.625V0H2.85714Z" fill="white" fill-opacity="0.8"/>
</svg>
