<svg width="373" height="377" viewBox="0 0 373 377" fill="none" xmlns="http://www.w3.org/2000/svg">
<path d="M293.904 154.419C293.904 150.492 292.655 147.266 290.157 144.741L271.216 125.807C268.579 123.142 265.457 121.81 261.849 121.81C258.241 121.81 255.119 123.142 252.483 125.807L167.559 211.432L120.517 163.886C117.881 161.221 114.759 159.889 111.151 159.889C107.543 159.889 104.421 161.221 101.784 163.886L82.8426 182.82C80.3448 185.344 79.0959 188.57 79.0959 192.497C79.0959 196.284 80.3448 199.44 82.8426 201.964L158.192 278.122C160.828 280.787 163.951 282.119 167.559 282.119C171.305 282.119 174.497 280.787 177.133 278.122L290.157 163.886C292.655 161.361 293.904 158.206 293.904 154.419ZM346.357 188.5C346.357 217.813 339.211 244.847 324.918 269.601C310.625 294.356 291.233 313.956 266.741 328.402C242.249 342.849 215.502 350.072 186.5 350.072C157.498 350.072 130.751 342.849 106.259 328.402C81.7672 313.956 62.3748 294.356 48.082 269.601C33.7892 244.847 26.6428 217.813 26.6428 188.5C26.6428 159.187 33.7892 132.154 48.082 107.399C62.3748 82.6442 81.7672 63.0439 106.259 48.5978C130.751 34.1517 157.498 26.9287 186.5 26.9287C215.502 26.9287 242.249 34.1517 266.741 48.5978C291.233 63.0439 310.625 82.6442 324.918 107.399C339.211 132.154 346.357 159.187 346.357 188.5Z" fill="#2D582A"/>
</svg>
