<svg width="20" height="20" viewBox="0 0 20 20" fill="none" xmlns="http://www.w3.org/2000/svg">
<path fill-rule="evenodd" clip-rule="evenodd" d="M8 12C8.55228 12 9 12.4477 9 13V19C9 19.5523 8.55228 20 8 20H1C0.447715 20 0 19.5523 0 19V13C0 12.4477 0.447715 12 1 12H8ZM19 7C19.5523 7 20 7.44772 20 8V19C20 19.5523 19.5523 20 19 20H12C11.4477 20 11 19.5523 11 19V8C11 7.44772 11.4477 7 12 7H19ZM8 0C8.55228 0 9 0.447715 9 1V9C9 9.55228 8.55228 10 8 10H1C0.447715 10 0 9.55228 0 9V1C0 0.447715 0.447715 0 1 0H8ZM19 0C19.5523 0 20 0.447715 20 1V4C20 4.55228 19.5523 5 19 5H12C11.4477 5 11 4.55228 11 4V1C11 0.447715 11.4477 0 12 0H19Z" fill="white" fill-opacity="0.8"/>
</svg>
