<svg width="2" height="13" viewBox="0 0 2 13" fill="none" xmlns="http://www.w3.org/2000/svg">
<path d="M0.999957 3.84385C0.751317 3.84385 0.51286 3.94262 0.337045 4.11844C0.16123 4.29425 0.0624574 4.53271 0.0624574 4.78135V11.1563C0.0624574 11.405 0.16123 11.6434 0.337045 11.8193C0.51286 11.9951 0.751317 12.0938 0.999957 12.0938C1.2486 12.0938 1.48706 11.9951 1.66287 11.8193C1.83869 11.6434 1.93746 11.405 1.93746 11.1563V4.78135C1.93746 4.53271 1.83869 4.29425 1.66287 4.11844C1.48706 3.94262 1.2486 3.84385 0.999957 3.84385ZM0.999957 9.95654e-05C0.746162 0.00964161 0.505652 0.115993 0.327817 0.297315C0.149982 0.478637 0.0483196 0.721167 0.043707 0.9751V1.1251C0.0432631 1.24742 0.0682885 1.36849 0.11719 1.48061C0.166091 1.59273 0.237797 1.69344 0.327745 1.77633C0.417693 1.85922 0.523913 1.92248 0.639644 1.96208C0.755375 2.00169 0.878082 2.01676 0.999957 2.00635C1.24564 1.99707 1.47874 1.89532 1.65258 1.72147C1.82643 1.54763 1.92818 1.31453 1.93746 1.06885V0.843849C1.9382 0.724697 1.91369 0.606739 1.86555 0.497741C1.81741 0.388744 1.74673 0.291179 1.65816 0.211468C1.5696 0.131758 1.46515 0.0717102 1.3517 0.0352785C1.23825 -0.00115319 1.11837 -0.0131421 0.999957 9.95654e-05Z" fill="#231F20"/>
</svg>
